<svg width="57" height="57" viewBox="0 0 57 57" fill="none" xmlns="http://www.w3.org/2000/svg">
<g clip-path="url(#clip0)">
<path d="M31.8398 50.2413C31.2253 50.2413 30.7266 50.74 30.7266 51.3546C30.7266 51.9691 31.2253 52.4678 31.8398 52.4678C32.4544 52.4678 32.9531 51.9691 32.9531 51.3546C32.9531 50.74 32.4544 50.2413 31.8398 50.2413Z" fill="#D35A00"/>
<path d="M16.1982 22.2979C15.5834 22.2979 15.085 22.7963 15.085 23.4112V44.6749C15.085 45.2897 15.5834 45.7881 16.1982 45.7881C16.8131 45.7881 17.3115 45.2897 17.3115 44.6749V23.4112C17.3115 22.7963 16.8131 22.2979 16.1982 22.2979Z" fill="#D35A00"/>
<path d="M25.1045 22.2979C24.4896 22.2979 23.9912 22.7963 23.9912 23.4112V44.6749C23.9912 45.2897 24.4896 45.7881 25.1045 45.7881C25.7194 45.7881 26.2178 45.2897 26.2178 44.6749V23.4112C26.2178 22.7963 25.7194 22.2979 25.1045 22.2979Z" fill="#D35A00"/>
<path d="M47.4814 17.9238H41.915V14.5552C43.6601 13.2469 44.4895 11.0357 43.9977 8.85248C43.5375 6.80515 41.8476 5.13434 39.793 4.69493C38.7008 4.46058 37.6007 4.54352 36.5985 4.9246C35.5934 3.34007 33.8284 2.33789 31.8955 2.33789C31.167 2.33789 30.455 2.47917 29.7968 2.75103C27.9333 0.99327 25.4767 0 22.9336 0C19.5697 0 16.4325 1.71367 14.5806 4.51758C8.76152 4.19562 3.95215 8.81229 3.95215 14.5049V27.8643C3.95215 29.7059 5.47534 31.2042 7.34766 31.2042C7.75835 31.2042 8.15189 31.1295 8.5166 30.9934V51.4336C8.5166 54.5029 11.0137 57 14.083 57H36.3486C39.4179 57 41.915 54.5029 41.915 51.4336V48.0938H47.4814C50.5508 48.0938 53.0479 45.5967 53.0479 42.5273V23.4902C53.0479 20.4209 50.5508 17.9238 47.4814 17.9238ZM39.6885 50.3203H36.2919C35.677 50.3203 35.1786 50.8187 35.1786 51.4336C35.1786 52.0485 35.677 52.5357 36.2919 52.5357H39.497C39.0374 53.8315 37.7999 54.7734 36.3486 54.7734H14.083C12.6317 54.7734 11.3942 53.8426 10.9346 52.5469H27.3878C28.0027 52.5469 28.5011 52.0485 28.5011 51.4336C28.5011 50.8187 28.0027 50.3203 27.3878 50.3203H10.7432V27.8398V19.9841C13.2439 19.6066 15.4094 18.0316 16.5478 15.6974C16.78 15.6974 16.9847 15.7778 17.1389 15.9291C18.3953 17.1646 20.0579 17.8449 21.8203 17.8449C23.647 17.8449 25.3522 17.1218 26.6224 15.8081C26.6904 15.7378 26.7864 15.6974 26.8857 15.6974C28.6188 15.6974 29.7528 16.0675 30.2564 16.7974C30.6716 17.3991 30.6712 18.2352 30.6709 18.9071V23.4113C30.6709 24.8626 31.6017 26.1001 32.8975 26.5597V44.675C32.8975 45.2898 33.3959 45.7883 34.0107 45.7883C34.6256 45.7883 35.124 45.2898 35.124 44.675V26.5596C36.4198 26.1 37.3506 24.8626 37.3506 23.4112V15.5666C38.1304 15.7222 38.9263 15.7232 39.6885 15.5673V50.3203ZM36.742 13.0195C36.3968 12.8439 35.9854 12.8603 35.6552 13.0628C35.3251 13.2652 35.1239 13.6246 35.1239 14.0118V23.4112C35.1239 24.0251 34.6245 24.5245 34.0106 24.5245C33.3968 24.5245 32.8973 24.0251 32.8973 23.4112V18.9077C32.8977 18.0309 32.8982 16.7058 32.089 15.5328C31.145 14.1645 29.3944 13.4707 26.8857 13.4707C26.1855 13.4707 25.5057 13.7589 25.0211 14.261C24.1748 15.1363 23.038 15.6182 21.8203 15.6182C20.6455 15.6182 19.5373 15.1648 18.6992 14.3405C18.1278 13.7795 17.3637 13.4707 16.5478 13.4707C15.7041 13.4707 14.9199 13.9602 14.5499 14.7178C13.6168 16.6286 11.7278 17.8269 9.62031 17.8449C9.00923 17.8501 8.51649 18.347 8.51649 18.9582V27.8115C8.4773 28.4672 7.96753 28.9776 7.34766 28.9776C6.71409 28.9776 6.17871 28.4677 6.17871 27.8643V14.5049C6.17871 10.2081 9.69468 6.72845 14.017 6.72845C14.3529 6.72845 14.6905 6.74982 15.028 6.79313C15.4783 6.85091 15.9184 6.62937 16.1405 6.2336C17.5272 3.762 20.1301 2.22656 22.9336 2.22656C25.1301 2.22656 27.2478 3.18565 28.7435 4.85803C29.106 5.26348 29.7085 5.34765 30.1684 5.05675C30.6775 4.73467 31.2747 4.56445 31.8955 4.56445C33.3127 4.56445 34.5794 5.46187 35.0475 6.79736C35.1614 7.12244 35.4195 7.3766 35.7463 7.48548C36.0731 7.59436 36.432 7.54582 36.7181 7.35389C37.4769 6.84512 38.403 6.67401 39.3264 6.87217C40.5288 7.12934 41.5563 8.14443 41.8253 9.34132C42.459 12.1539 39.5759 14.4611 36.742 13.0195ZM41.915 24.6035H46.3682V41.4141H41.915V24.6035ZM50.8213 42.5273C50.8213 44.3689 49.323 45.8672 47.4814 45.8672H41.915V43.6406H47.4814C48.0963 43.6406 48.5947 43.1422 48.5947 42.5273V23.4902C48.5947 22.8754 48.0963 22.377 47.4814 22.377H41.915V20.1504H47.4814C49.323 20.1504 50.8213 21.6486 50.8213 23.4902V42.5273Z" fill="#D35A00"/>
</g>
<defs>
<clipPath id="clip0">
<rect width="57" height="57" fill="white"/>
</clipPath>
</defs>
</svg>
