<svg width="57" height="57" viewBox="0 0 57 57" fill="none" xmlns="http://www.w3.org/2000/svg">
<path d="M12.9142 22.2656C12.9142 29.6737 18.104 35.9476 25.1603 37.4914V50.7455L16.8694 54.8907C16.4075 55.1217 16.1653 55.64 16.2836 56.1423C16.4023 56.645 16.8511 56.9999 17.3673 56.9999H39.6329C40.1491 56.9999 40.5979 56.645 40.7161 56.1423C40.8349 55.64 40.5926 55.1221 40.1304 54.8907L31.8399 50.7455V37.4914C39.0928 35.9041 44.2173 29.3862 44.0847 22.0216C44.0382 19.1641 43.5928 18.7966 39.6046 0.8654C39.4894 0.359206 39.0388 0 38.5196 0H33.0645C32.4496 0 31.9513 0.498366 31.9513 1.11328C31.9513 1.72819 32.4496 2.22656 33.0645 2.22656H37.632C37.632 2.22656 41.6398 19.8298 41.685 20.1086C39.3441 18.9579 36.5348 17.8847 34.0995 17.8129C31.5281 17.7355 29.1768 19.0279 26.9045 20.2765C24.751 21.4598 22.7176 22.5774 20.8854 22.2799C19.3721 22.0347 17.526 20.9288 15.5226 19.0736L19.3686 2.22656H24.1583C24.7732 2.22656 25.2716 1.72819 25.2716 1.11328C25.2716 0.498366 24.7732 0 24.1583 0H18.4806C17.9613 0 17.5108 0.359206 17.3951 0.8654C12.9529 20.3382 12.9142 19.7394 12.9142 22.2656H12.9142ZM34.9171 54.7733H22.0831L26.7715 52.4293C27.1485 52.2406 27.3868 51.8549 27.3868 51.4335V37.8106C27.7569 37.8367 28.1287 37.8515 28.5001 37.8515C28.8715 37.8515 29.2433 37.8367 29.6134 37.8106V51.4335C29.6134 51.8553 29.8517 52.2406 30.2287 52.4293L34.9171 54.7733ZM27.9769 22.2277C29.9878 21.1232 32.0665 19.9803 34.0339 20.0386C35.9917 20.096 38.7509 21.0371 41.8516 22.6974C41.6216 29.6928 35.8129 35.6841 28.3888 35.6236C20.7906 35.5623 14.845 29.1227 15.1534 21.7059C17.0772 23.2801 18.8794 24.2103 20.5288 24.4778C23.1372 24.9014 25.6386 23.5128 27.9769 22.2277Z" fill="#D35A00"/>
<path d="M29.7246 1.11328C29.7246 1.7282 29.2262 2.22656 28.6113 2.22656C27.9964 2.22656 27.498 1.7282 27.498 1.11328C27.498 0.498367 27.9964 0 28.6113 0C29.2262 0 29.7246 0.498367 29.7246 1.11328Z" fill="#D35A00"/>
</svg>
