<svg width="59" height="59" viewBox="0 0 59 59" fill="none" xmlns="http://www.w3.org/2000/svg">
<path d="M32.6639 30.4206L54.0928 6.84595C54.5646 6.3267 54.6815 5.60557 54.3975 4.96394C54.1137 4.32232 53.5015 3.92372 52.7999 3.92372H46.0972L48.4335 1.45966C48.7621 1.11304 48.7475 0.565791 48.401 0.237142C48.0545 -0.0912756 47.5072 -0.0768713 47.1785 0.269754L43.7141 3.92384H6.20019C5.49853 3.92384 4.88629 4.32243 4.60246 4.96406C4.31864 5.6058 4.43549 6.32693 4.90737 6.84606L26.3362 30.4206C26.5646 30.6718 26.8213 30.8917 27.0979 31.0794V51.8517C27.0979 52.9488 26.4017 53.9281 25.3654 54.2883L18.1855 56.7847C18.168 56.7908 18.1507 56.7974 18.1337 56.8045C17.6266 57.0183 17.3485 57.5443 17.4574 58.0838C17.5664 58.6232 18.0269 59 18.5773 59H40.4226C40.973 59 41.4336 58.6233 41.5426 58.0838C41.6516 57.5443 41.3734 57.0182 40.8663 56.8045C40.8493 56.7974 40.8319 56.7907 40.8145 56.7847L33.6346 54.2883C32.5984 53.9279 31.9021 52.9488 31.9021 51.8517V31.0795C32.1789 30.8917 32.4355 30.6718 32.6639 30.4206ZM44.4575 5.65327H52.7999C52.8055 5.65327 52.8096 5.6535 52.8096 5.6535C52.8145 5.65834 52.8198 5.67033 52.8201 5.67332C52.8201 5.67332 52.8185 5.67655 52.813 5.68266L47.4909 11.5377H43.2371C43.6259 10.2921 43.3783 8.8493 42.5279 7.68854L44.4575 5.65327ZM33.0666 55.9218L36.9454 57.2704H22.0546L25.9334 55.9218C27.6644 55.32 28.8275 53.6843 28.8275 51.8517V31.7666C28.8656 31.7728 28.9041 31.777 28.9425 31.7821C28.9628 31.7847 28.9831 31.7877 29.0033 31.7902C29.0492 31.7956 29.0952 31.7998 29.1412 31.8036C29.155 31.8048 29.1688 31.8059 29.1826 31.807C29.288 31.8148 29.3938 31.8202 29.5001 31.8202C29.6066 31.8202 29.7125 31.8148 29.8181 31.8069C29.8314 31.8058 29.8449 31.8048 29.8583 31.8036C29.9047 31.7997 29.951 31.7955 29.9972 31.79C30.0166 31.7878 30.0358 31.7849 30.0552 31.7823C30.0944 31.7771 30.1337 31.7728 30.1726 31.7665V51.8514C30.1725 53.6843 31.3356 55.32 33.0666 55.9218ZM31.3841 29.2572C31.1751 29.4872 30.9327 29.6726 30.6671 29.81C30.6606 29.813 30.654 29.815 30.6476 29.8183C29.929 30.1809 29.0709 30.181 28.3523 29.8183C28.346 29.8152 28.3394 29.8131 28.333 29.8101C28.0674 29.6727 27.8251 29.4873 27.6159 29.2573L13.0813 13.2672H16.2879C16.7655 13.2672 17.1526 12.88 17.1526 12.4024C17.1526 11.9249 16.7655 11.5377 16.2879 11.5377H11.5092L6.18705 5.68266C6.18325 5.67851 6.18072 5.67528 6.18072 5.67528C6.18095 5.66848 6.18636 5.65661 6.18821 5.65431C6.18821 5.65431 6.19166 5.65327 6.20007 5.65327H42.0743L41.2735 6.49783C40.5671 6.03447 39.7593 5.77162 38.9325 5.74511C37.7878 5.70847 36.7418 6.12447 35.9905 6.91716C35.239 7.70975 34.8789 8.77532 34.9766 9.91752C34.9894 10.0664 35.0104 10.2141 35.0383 10.3604C33.7908 10.1921 32.5314 10.5657 31.6539 11.4912C31.6394 11.5064 31.6263 11.5223 31.6121 11.5377H20.3118C19.8343 11.5377 19.4471 11.9249 19.4471 12.4024C19.4471 12.88 19.8343 13.2672 20.3118 13.2672H30.7205C30.6029 13.8061 30.599 14.3726 30.7049 14.931C30.5573 14.9111 30.4086 14.898 30.2593 14.8931C29.1136 14.856 28.0687 15.2725 27.3172 16.0652C25.979 17.4767 25.9678 19.7068 27.1805 21.3624L26.2245 22.3707C25.8959 22.7173 25.9105 23.2645 26.2571 23.5932C26.4243 23.7518 26.6383 23.8303 26.8519 23.8303C27.0809 23.8303 27.3096 23.7399 27.4796 23.5606L28.4349 22.553C29.1413 23.0163 29.949 23.2792 30.776 23.3057C30.8228 23.3072 30.8692 23.308 30.9157 23.308C32.0065 23.308 32.9974 22.8939 33.7182 22.1337C34.4696 21.3412 34.8297 20.2756 34.732 19.1334C34.7192 18.9846 34.6982 18.837 34.6705 18.6908C34.8635 18.7168 35.0568 18.7306 35.2489 18.7306C36.2986 18.7306 37.3132 18.342 38.0549 17.5596C38.9324 16.6341 39.2383 15.3566 39.0038 14.1198C39.1515 14.1397 39.3001 14.1528 39.4493 14.1577C39.4961 14.1592 39.5426 14.16 39.589 14.16C40.5365 14.16 41.4082 13.8472 42.0933 13.267H45.9191L31.3841 29.2572ZM32.9088 12.6811C33.3125 12.2553 33.8703 12.0456 34.4593 12.0456C35.136 12.0456 35.8541 12.3222 36.4276 12.8659C37.5002 13.8831 37.667 15.4549 36.7995 16.3698C35.9319 17.2846 34.3539 17.2018 33.2812 16.1853C32.2086 15.1683 32.0413 13.596 32.9088 12.6811ZM32.4628 20.944C32.0559 21.3731 31.4786 21.5969 30.8313 21.5773C30.1477 21.5554 29.4775 21.2648 28.9441 20.759C27.8714 19.7419 27.7045 18.1701 28.5721 17.2552C28.9619 16.8441 29.5097 16.6205 30.122 16.6205C30.1492 16.6205 30.1764 16.6209 30.2036 16.6217C30.887 16.6436 31.5571 16.9341 32.0904 17.4396C32.6237 17.9453 32.95 18.5995 33.0083 19.281C33.0634 19.9241 32.8697 20.5147 32.4628 20.944ZM36.6999 9.77002C36.6448 9.1269 36.8385 8.53632 37.2454 8.10707C37.6351 7.69615 38.1828 7.47236 38.7953 7.47236C38.8222 7.47236 38.8495 7.47282 38.8769 7.47363C39.5604 7.49564 40.2306 7.78615 40.7639 8.29191C41.8365 9.30885 42.0034 10.8808 41.1359 11.7957C40.729 12.2249 40.1482 12.4486 39.5044 12.4291C38.821 12.4073 38.1508 12.1167 37.6175 11.6109C37.084 11.1052 36.7583 10.4514 36.6999 9.77002Z" fill="#D35A00"/>
</svg>